# xmcd CD database file
#
# Track frame offsets:
#	150
#	18826
#	40988
#	63939
#	85692
#	107349
#	128586
#	145842
#	167160
#	191797
#	208560
#	222797
#
# Disc length: 3245 seconds
#
# Revision: 0
# Processed by: cddbd v1.5.2PL0 Copyright (c) Steve Scherf et al.
# Submitted via: CDex 1.70beta2
#
DISCID=9c0cab0c
DTITLE=Nina Simone - Nina Simone [CD1)
DYEAR=2007
DGENRE=Jazz
TTITLE0=The Other Woman
TTITLE1=Porgy
TTITLE2=Nobody Knows You When You're Down And Out
TTITLE3=Four Women
TTITLE4=Gin House Blues
TTITLE5=When I Was A Young Girl
TTITLE6=Sea Line Woman
TTITLE7=Pirate Jenny
TTITLE8=It's Cold Out Here
TTITLE9=Cotton Eyed Joe
TTITLE10=Please Read Me
TTITLE11=Just In Time
EXTD=YEAR: 2007
EXTT0=
EXTT1=
EXTT2=
EXTT3=
EXTT4=
EXTT5=
EXTT6=
EXTT7=
EXTT8=
EXTT9=
EXTT10=
EXTT11=
PLAYORDER=
